<svg xmlns="http://www.w3.org/2000/svg" viewBox="200 0 90 60">
    <defs>
      <style>.cls-1{fill:#fff;}</style>
    </defs>
    <g>
      <path class="cls-1" d="M273.24,46.32A5.62,5.62,0,0,1,271,48.39c-2,1.1-4.31.44-6.08-.89-1.42-1.06-1.93-2.49-2.56-4.07A9.84,9.84,0,0,0,258,38.68a12.1,12.1,0,0,0-6.44-1.91,13.67,13.67,0,0,0-6.9,1.73,10,10,0,0,0-4.5,4.78c-.64,1.55-1.12,3-2.5,4.07-1.74,1.36-4,2.08-6.09,1a6.25,6.25,0,0,1-2.3-2.09,5.43,5.43,0,0,1-.67-3c.09-2.29,1.77-3.9,3.77-4.76a7.16,7.16,0,0,1,4.22-.3,9.2,9.2,0,0,0,4.89-.36c3.24-1.19,6.44-3.73,7.69-7l-.06.17a13,13,0,0,0,1-8A9.25,9.25,0,0,0,248,18.67a7.16,7.16,0,0,1-1.84-3.88,5.68,5.68,0,0,1,1.78-5.22,5.24,5.24,0,0,1,4.86-1,5,5,0,0,1,3.31,2.89,6.92,6.92,0,0,1-.29,5.51c-.64,1.21-1.71,2.13-2.39,3.32a11.38,11.38,0,0,0-1.08,6.78,13.1,13.1,0,0,0,6.13,9.62,10.32,10.32,0,0,0,6.37,1.74c1.53-.16,3-.58,4.51-.13,2,.61,4.06,2.12,4.46,4.32a5.92,5.92,0,0,1-.54,3.62l0,.05m3.08-14.27a16.05,16.05,0,0,0-7.47-2.25c-1.73-.07-3.57.23-5.24-.38a4.46,4.46,0,0,1-2.24-1.7,3.39,3.39,0,0,1-.35-2.19c.17-1.7,1.17-3.08,2-4.52,2.27-4,3-9.08.94-13.29A14.2,14.2,0,0,0,252.23,0a14.36,14.36,0,0,0-12.81,6.23c-2.67,4-2.58,9.34-.51,13.6.7,1.42,1.7,2.7,2.26,4.18a5.11,5.11,0,0,1,.15,3.36,3.28,3.28,0,0,1-1.49,1.6c-1.66,1-3.57.77-5.42.79a15.78,15.78,0,0,0-7.08,1.68,12.44,12.44,0,0,0-5.33,4.9,13.85,13.85,0,0,0-1.81,6.89,14.58,14.58,0,0,0,7.17,12.47,12.89,12.89,0,0,0,9.44,1.62,15.65,15.65,0,0,0,6.72-3.75,37,37,0,0,0,3.47-4.9,11.94,11.94,0,0,1,1.55-2.08,3.57,3.57,0,0,1,5.52,0,11.2,11.2,0,0,1,1.51,2.08A20.8,20.8,0,0,0,259,53.58a14.26,14.26,0,0,0,6.62,3.76,13,13,0,0,0,6.64-.33A14.53,14.53,0,0,0,282,46.67a13.66,13.66,0,0,0-3.74-13.23,11.2,11.2,0,0,0-1.91-1.39"/>
    </g>
  </svg>
  